<svg width="50" height="50" viewBox="0 0 50 50" fill="none" xmlns="http://www.w3.org/2000/svg">
<path d="M48.4375 40.5789H47.6562V14.0164C47.6562 13.1876 47.327 12.3928 46.741 11.8067C46.1549 11.2207 45.3601 10.8914 44.5312 10.8914H32.8125C32.7626 8.85316 31.9178 6.91518 30.4585 5.49125C28.9993 4.06732 27.0412 3.27026 25.0023 3.27026C22.9635 3.27026 21.0054 4.06732 19.5461 5.49125C18.0869 6.91518 17.2421 8.85316 17.1922 10.8914H5.46875C4.63995 10.8914 3.84509 11.2207 3.25904 11.8067C2.67299 12.3928 2.34375 13.1876 2.34375 14.0164V40.5789H1.5625C1.3553 40.5789 1.15659 40.6612 1.01007 40.8077C0.86356 40.9542 0.78125 41.153 0.78125 41.3602V42.9227C0.782491 43.9583 1.19444 44.9511 1.92673 45.6834C2.65903 46.4157 3.65188 46.8277 4.6875 46.8289H45.3125C46.3481 46.8277 47.341 46.4157 48.0733 45.6834C48.8056 44.9511 49.2175 43.9583 49.2188 42.9227V41.3602C49.2188 41.153 49.1364 40.9542 48.9899 40.8077C48.8434 40.6612 48.6447 40.5789 48.4375 40.5789ZM25 18.75C26.2203 18.7489 27.4232 18.4613 28.5122 17.9106C29.6011 17.3598 30.5455 16.5612 31.2695 15.5789H42.9688V37.4539H7.03125V15.5789H18.7305C19.4545 16.5612 20.3989 17.3598 21.4878 17.9106C22.5768 18.4613 23.7797 18.7489 25 18.75ZM25 4.68751C26.2361 4.68751 27.4445 5.05406 28.4723 5.74082C29.5001 6.42758 30.3012 7.4037 30.7742 8.54573C31.2473 9.68777 31.3711 10.9444 31.1299 12.1568C30.8888 13.3692 30.2935 14.4828 29.4194 15.3569C28.5453 16.231 27.4317 16.8263 26.2193 17.0674C25.0069 17.3086 23.7503 17.1848 22.6082 16.7118C21.4662 16.2387 20.4901 15.4376 19.8033 14.4098C19.1166 13.382 18.75 12.1736 18.75 10.9375C18.7519 9.28047 19.4109 7.69184 20.5826 6.52014C21.7543 5.34844 23.343 4.68937 25 4.68751ZM3.90625 14.0164C3.90625 13.602 4.07087 13.2046 4.3639 12.9116C4.65692 12.6185 5.05435 12.4539 5.46875 12.4539H17.3383C17.4437 12.9905 17.6061 13.5143 17.8227 14.0164H6.25C6.0428 14.0164 5.84409 14.0987 5.69757 14.2452C5.55106 14.3917 5.46875 14.5905 5.46875 14.7977V38.2352C5.46875 38.4424 5.55106 38.6411 5.69757 38.7876C5.84409 38.9341 6.0428 39.0164 6.25 39.0164H43.75C43.9572 39.0164 44.1559 38.9341 44.3024 38.7876C44.4489 38.6411 44.5312 38.4424 44.5312 38.2352V14.7977C44.5312 14.5905 44.4489 14.3917 44.3024 14.2452C44.1559 14.0987 43.9572 14.0164 43.75 14.0164H32.1781C32.3941 13.5141 32.5562 12.9904 32.6617 12.4539H44.5312C44.9457 12.4539 45.3431 12.6185 45.6361 12.9116C45.9291 13.2046 46.0938 13.602 46.0938 14.0164V40.5789H29.6875C29.5417 40.5781 29.3985 40.6182 29.2742 40.6945C29.15 40.7709 29.0496 40.8805 28.9844 41.0109L28.4195 42.1414H21.5766L21.0156 41.0109C20.9504 40.8805 20.85 40.7709 20.7258 40.6945C20.6015 40.6182 20.4583 40.5781 20.3125 40.5789H3.90625V14.0164ZM47.6562 42.9227C47.6562 43.5443 47.4093 44.1404 46.9698 44.5799C46.5302 45.0195 45.9341 45.2664 45.3125 45.2664H4.6875C4.0659 45.2664 3.46976 45.0195 3.03022 44.5799C2.59068 44.1404 2.34375 43.5443 2.34375 42.9227V42.1414H19.8297L20.3945 43.2727C20.4595 43.4024 20.5594 43.5114 20.6829 43.5876C20.8064 43.6638 20.9487 43.704 21.0938 43.7039H28.9062C29.052 43.7048 29.1951 43.6648 29.3194 43.5886C29.4436 43.5124 29.5441 43.403 29.6094 43.2727L30.1742 42.1414H47.6562V42.9227Z" fill="#E9BC58"/>
<path d="M9.375 35.9375H41.4062V34.375H38.2812V32.8125H36.7188V34.375H35.1562V32.8125H33.5938V34.375H32.0312V32.8125H30.4688V34.375H28.9062V32.8125H27.3438V34.375H25.7812V32.8125H24.2188V34.375H22.6562V32.8125H21.0938V34.375H19.5312V32.8125H17.9688V34.375H16.4062V32.8125H14.8438V34.375H13.2812V32.8125H11.7188V34.375H10.1562V32.8125H11.7188V31.25H10.1562V29.6875H11.7188V28.125H10.1562V26.5625H11.7188V25H10.1562V23.4375H11.7188V21.875H10.1562V20.3125H11.7188V18.75H10.1562V17.1875H8.59375V35.1562C8.59375 35.3635 8.67606 35.5622 8.82257 35.7087C8.96909 35.8552 9.1678 35.9375 9.375 35.9375Z" fill="#E9BC58"/>
<path d="M13.4702 28.1016L14.9757 27.725L14.089 31.0484L15.5983 31.4516L16.7077 27.2922L18.9257 26.7383L19.5468 29.8437C19.577 29.9952 19.6515 30.1343 19.7608 30.2435C19.8701 30.3527 20.0093 30.427 20.1608 30.457C20.2109 30.4659 20.2616 30.4698 20.3124 30.4687C20.441 30.4688 20.5676 30.437 20.681 30.3764C20.7944 30.3157 20.891 30.2281 20.9624 30.1211L23.3218 26.5812L25.203 28.6508C25.3286 28.7886 25.4993 28.877 25.6843 28.9L38.1843 30.4625L38.378 28.9125L26.1648 27.3859L24.2187 25.2414L25.1952 23.7766L27.6562 25.625C27.7995 25.7323 27.9753 25.7871 28.1542 25.7803C28.3331 25.7735 28.5042 25.7054 28.639 25.5875L33.9624 20.9305L35.1858 25.2148C35.2258 25.3548 35.304 25.4808 35.4117 25.5786C35.5194 25.6765 35.6523 25.7423 35.7954 25.7687C35.9385 25.7951 36.0861 25.781 36.2216 25.728C36.3572 25.675 36.4752 25.5852 36.5624 25.4687L41.2499 19.2187L39.9999 18.2812L36.2562 23.2727L35.1265 19.3164C35.0902 19.1899 35.0226 19.0746 34.9299 18.9812C34.8372 18.8878 34.7224 18.8193 34.5961 18.7821C34.4699 18.745 34.3363 18.7403 34.2077 18.7685C34.0792 18.7968 33.9599 18.8571 33.8608 18.9437L28.0866 23.9953L25.4687 22.0312C25.3837 21.9675 25.2866 21.9217 25.1833 21.8968C25.0801 21.8718 24.9728 21.8682 24.8681 21.8861C24.7634 21.904 24.6634 21.9431 24.5743 22.001C24.4852 22.0589 24.4089 22.1343 24.3499 22.2227L23.1319 24.0492L18.5468 19.0055C18.4524 18.9016 18.3317 18.8252 18.1975 18.7841C18.0633 18.743 17.9205 18.7388 17.7841 18.772C17.6478 18.8052 17.5229 18.8745 17.4225 18.9726C17.3222 19.0707 17.2502 19.1941 17.214 19.3297L15.4351 26L13.0913 26.5859L13.4702 28.1016ZM18.3546 21.1172L22.2382 25.3906L20.7085 27.6859L20.2968 25.625C20.276 25.5214 20.2345 25.4231 20.1747 25.3361C20.1149 25.249 20.038 25.175 19.9488 25.1184C19.8595 25.0619 19.7598 25.0241 19.6555 25.0072C19.5512 24.9903 19.4446 24.9948 19.3421 25.0203L17.1679 25.5672L18.3546 21.1172Z" fill="#E9BC58"/>
<path d="M22.6562 15.625H24.2187V14.8438H25V15.625H26.5625V14.8438C27.0147 14.8431 27.457 14.7117 27.8362 14.4654C28.2154 14.2191 28.5152 13.8683 28.6995 13.4554C28.8838 13.0425 28.9448 12.5851 28.875 12.1383C28.8052 11.6916 28.6077 11.2745 28.3062 10.9375C28.6077 10.6005 28.8052 10.1834 28.875 9.73668C28.9448 9.28992 28.8838 8.83252 28.6995 8.41962C28.5152 8.00672 28.2154 7.65595 27.8362 7.40961C27.457 7.16326 27.0147 7.03186 26.5625 7.03125V6.25H25V7.03125H24.2187V6.25H22.6562V7.03125H21.0938V8.59375H21.875V13.2812H21.0938V14.8438H22.6562V15.625ZM26.5625 8.59375C26.7697 8.59375 26.9684 8.67606 27.1149 8.82257C27.2614 8.96909 27.3437 9.1678 27.3437 9.375C27.3437 9.5822 27.2614 9.78091 27.1149 9.92743C26.9684 10.0739 26.7697 10.1562 26.5625 10.1562H23.4375V8.59375H26.5625ZM23.4375 11.7188H26.5625C26.7697 11.7188 26.9684 11.8011 27.1149 11.9476C27.2614 12.0941 27.3437 12.2928 27.3437 12.5C27.3437 12.7072 27.2614 12.9059 27.1149 13.0524C26.9684 13.1989 26.7697 13.2812 26.5625 13.2812H23.4375V11.7188Z" fill="#E9BC58"/>
</svg>
