<svg width="50" height="50" viewBox="0 0 50 50" fill="none" xmlns="http://www.w3.org/2000/svg">
<path d="M13.333 43.2713H14.8955V41.649C16.2393 41.3105 17.2393 40.135 17.2393 38.7271C17.2393 37.8175 16.8158 37.0109 16.1596 36.455C16.8158 35.8991 17.2393 35.0925 17.2393 34.1829C17.2393 32.7749 16.2393 31.5995 14.8955 31.261V29.6387H13.333V31.1534H12.5518V29.6387H10.9893V31.1534H9.42676V32.6681H10.208V40.2418H9.42676V41.7566H10.9893V43.2713H12.5518V41.7566H13.333V43.2713ZM14.1143 32.6681C14.976 32.6681 15.6768 33.3475 15.6768 34.1829C15.6768 35.0183 14.976 35.6976 14.1143 35.6976H11.7705V32.6681H14.1143ZM11.7705 37.2124H14.1143C14.976 37.2124 15.6768 37.8917 15.6768 38.7271C15.6768 39.5625 14.976 40.2418 14.1143 40.2418H11.7705V37.2124Z" fill="#E9BC58"/>
<path d="M21.1455 36.455C21.1455 40.6311 17.6408 44.0286 13.333 44.0286V45.5434C18.5025 45.5434 22.708 41.4665 22.708 36.455H21.1455Z" fill="#E9BC58"/>
<path d="M13.333 27.3665C8.16348 27.3665 3.95801 31.4434 3.95801 36.4549H5.52051C5.52051 32.2788 9.0252 28.8812 13.333 28.8812V27.3665Z" fill="#E9BC58"/>
<path d="M44.583 13.7339C44.583 17.91 41.0783 21.3076 36.7705 21.3076V22.8223C41.94 22.8223 46.1455 18.7454 46.1455 13.7339H44.583Z" fill="#E9BC58"/>
<path d="M36.7705 4.64539C31.601 4.64539 27.3955 8.7223 27.3955 13.7338H28.958C28.958 9.55768 32.4627 6.16012 36.7705 6.16012V4.64539Z" fill="#E9BC58"/>
<path d="M46.1314 21.7377C48.0783 19.6004 49.2705 16.8027 49.2705 13.7338C49.2705 7.05231 43.6627 1.61591 36.7705 1.61591C33.6049 1.61591 30.7189 2.77166 28.5143 4.65902L25.6041 1.83782C25.2986 1.54169 24.8049 1.54169 24.4994 1.83782L14.1143 11.9055V8.43223H12.5518V13.7338C12.5518 14.1526 12.9018 14.4912 13.333 14.4912H18.8018V12.9764H15.2189L25.0518 3.4442L27.4096 5.72994C25.4627 7.86724 24.2705 10.665 24.2705 13.7338C24.2705 20.4153 29.8783 25.8517 36.7705 25.8517C39.9361 25.8517 42.8221 24.696 45.0268 22.8086L47.3846 25.0944L37.7807 34.4047L38.8854 35.4756L49.0416 25.6298C49.3471 25.3337 49.3471 24.855 49.0416 24.5589L46.1314 21.7377ZM36.7705 24.337C30.7393 24.337 25.833 19.5807 25.833 13.7338C25.833 7.88693 30.7393 3.13065 36.7705 3.13065C42.8018 3.13065 47.708 7.88693 47.708 13.7338C47.708 19.5807 42.8018 24.337 36.7705 24.337Z" fill="#E9BC58"/>
<path d="M36.7707 35.6976H31.302V37.2123H34.8848L25.052 46.7445L22.6941 44.4588C24.641 42.3215 25.8332 39.5238 25.8332 36.4549C25.8332 29.7734 20.2254 24.337 13.3332 24.337C10.1676 24.337 7.28164 25.4928 5.07695 27.3801L2.71914 25.0944L12.323 15.7841L11.2184 14.7131L1.06211 24.5589C0.756641 24.8551 0.756641 25.3337 1.06211 25.6299L3.97227 28.4511C2.02539 30.5883 0.833203 33.3861 0.833203 36.4549C0.833203 43.1364 6.44102 48.5728 13.3332 48.5728C16.4988 48.5728 19.3848 47.4171 21.5895 45.5297L24.4996 48.3509C24.652 48.4986 24.852 48.5728 25.052 48.5728C25.252 48.5728 25.452 48.4986 25.6043 48.3509L35.9895 38.2832V41.7565H37.552V36.4549C37.552 36.0361 37.202 35.6976 36.7707 35.6976ZM2.3957 36.4549C2.3957 30.608 7.30195 25.8518 13.3332 25.8518C19.3645 25.8518 24.2707 30.608 24.2707 36.4549C24.2707 42.3018 19.3645 47.0581 13.3332 47.0581C7.30195 47.0581 2.3957 42.3018 2.3957 36.4549Z" fill="#E9BC58"/>
<path d="M37.5518 18.9278C38.8955 18.5893 39.8955 17.4139 39.8955 16.0059C39.8955 14.3352 38.4939 12.9764 36.7705 12.9764C35.9088 12.9764 35.208 12.2971 35.208 11.4617C35.208 10.6263 35.9088 9.94696 36.7705 9.94696C37.6322 9.94696 38.333 10.6263 38.333 11.4617H39.8955C39.8955 10.0537 38.8955 8.87831 37.5518 8.53977V6.91748H35.9893V8.53977C34.6455 8.87831 33.6455 10.0537 33.6455 11.4617C33.6455 13.1325 35.0471 14.4912 36.7705 14.4912C37.6322 14.4912 38.333 15.1705 38.333 16.0059C38.333 16.8413 37.6322 17.5206 36.7705 17.5206C35.9088 17.5206 35.208 16.8413 35.208 16.0059H33.6455C33.6455 17.4139 34.6455 18.5893 35.9893 18.9278V20.5501H37.5518V18.9278Z" fill="#E9BC58"/>
</svg>
