<svg width="50" height="50" viewBox="0 0 50 50" fill="none" xmlns="http://www.w3.org/2000/svg">
<path d="M44.5313 38.1477C44.5306 37.3545 44.2153 36.594 43.6544 36.0331C43.0935 35.4722 42.333 35.1569 41.5398 35.1562H41.4547C40.711 35.1597 39.9948 35.438 39.4438 35.9375L35.1398 40.3016C35.0588 39.5332 34.6965 38.822 34.1226 38.3048C33.5487 37.7876 32.8038 37.5009 32.0313 37.5H26.7758C24.1431 35.966 21.1509 35.1573 18.1039 35.1562H17.1875C17.1875 34.949 17.1052 34.7503 16.9587 34.6038C16.8122 34.4573 16.6135 34.375 16.4063 34.375H13.2813C13.2813 34.1678 13.1989 33.9691 13.0524 33.8226C12.9059 33.6761 12.7072 33.5938 12.5 33.5938H6.25V35.1562H11.7188V46.0937H6.25V47.6562H12.5C12.7072 47.6562 12.9059 47.5739 13.0524 47.4274C13.1989 47.2809 13.2813 47.0822 13.2813 46.875H16.4063C16.5699 46.874 16.729 46.8211 16.8607 46.724C16.9923 46.6268 17.0898 46.4904 17.1391 46.3344L26.2148 48.9273C27.8885 49.4058 29.676 49.2924 31.2758 48.6062L38.1984 45.6375C38.2897 45.5983 38.3727 45.5421 38.443 45.4719L43.6547 40.2602C43.9332 39.9835 44.1541 39.6543 44.3046 39.2917C44.455 38.9291 44.5321 38.5402 44.5313 38.1477ZM15.625 45.3125H13.2813V35.9375H15.625V45.3125ZM42.55 39.1578L37.4445 44.2633L30.6602 47.1703C29.3902 47.7124 27.9728 47.8023 26.6445 47.425L17.1875 44.7234V36.7187H18.1008C20.9398 36.7189 23.7255 37.4904 26.1602 38.9508C26.2817 39.0238 26.4207 39.0625 26.5625 39.0625H32.0313C32.4457 39.0625 32.8431 39.2271 33.1361 39.5201C33.4291 39.8132 33.5938 40.2106 33.5938 40.625V41.4062H25.7813V42.9687H34.375V42.9609C34.478 42.9623 34.5803 42.9432 34.6758 42.9045C34.7713 42.8659 34.8582 42.8086 34.9313 42.7359L40.5148 37.0719C40.7745 36.8449 41.1075 36.7195 41.4523 36.7187H41.5375C41.82 36.7188 42.0962 36.8027 42.3311 36.9597C42.566 37.1167 42.7491 37.3399 42.8572 37.6009C42.9653 37.8619 42.9936 38.1492 42.9385 38.4263C42.8834 38.7034 42.7474 38.958 42.5477 39.1578H42.55Z" fill="#E9BC58"/>
<path d="M23.2335 30.4687H34.3749C34.5035 30.4688 34.6301 30.437 34.7435 30.3764C34.8569 30.3158 34.9536 30.2281 35.025 30.1211L36.5875 27.7773C36.6877 27.6271 36.7327 27.4467 36.7149 27.2669C36.6971 27.0872 36.6175 26.9191 36.4898 26.7914L34.146 24.4477C33.9996 24.3011 33.8009 24.2188 33.5937 24.2187H31.2499C31.0428 24.2188 30.8441 24.3011 30.6976 24.4477L30.3148 24.8305L29.2554 24.3008C29.1469 24.2467 29.0274 24.2186 28.9062 24.2187H27.3437C27.1365 24.2188 26.9378 24.3011 26.7914 24.4477L25.9953 25.2437L25.6992 24.6508C25.6343 24.5209 25.5345 24.4117 25.411 24.3354C25.2875 24.2591 25.1451 24.2187 24.9999 24.2187H23.2335C22.5682 23.2633 21.6154 22.5451 20.5136 22.1687C19.4119 21.7923 18.2188 21.7773 17.108 22.126C15.9971 22.4746 15.0265 23.1687 14.3375 24.1071C13.6484 25.0456 13.2769 26.1795 13.2769 27.3437C13.2769 28.508 13.6484 29.6419 14.3375 30.5804C15.0265 31.5188 15.9971 32.2129 17.108 32.5615C18.2188 32.9102 19.4119 32.8952 20.5136 32.5188C21.6154 32.1424 22.5682 31.4242 23.2335 30.4687ZM14.8437 27.3437C14.8458 26.4856 15.1304 25.6521 15.6536 24.9719C16.1768 24.2917 16.9094 23.8026 17.7382 23.5804C18.5671 23.3581 19.446 23.415 20.2393 23.7422C21.0326 24.0694 21.6961 24.6487 22.1273 25.3906C22.1959 25.5095 22.2947 25.6082 22.4136 25.6768C22.5325 25.7453 22.6674 25.7814 22.8046 25.7812H24.5171L25.082 26.9117C25.1374 27.0222 25.2182 27.118 25.3178 27.1912C25.4175 27.2644 25.533 27.3129 25.6551 27.3327C25.7771 27.3526 25.9021 27.3431 26.0198 27.3053C26.1374 27.2674 26.2444 27.2021 26.332 27.1148L27.6671 25.7812H28.7218L30.1195 26.4844C30.2662 26.5576 30.4322 26.5828 30.594 26.5564C30.7558 26.5301 30.9052 26.4535 31.021 26.3375L31.5734 25.7812H33.2703L34.932 27.443L33.957 28.9062H22.8046C22.6674 28.9061 22.5325 28.9422 22.4136 29.0107C22.2947 29.0793 22.1959 29.178 22.1273 29.2969C21.6961 30.0388 21.0326 30.6181 20.2393 30.9453C19.446 31.2725 18.5671 31.3294 17.7382 31.1071C16.9094 30.8849 16.1768 30.3958 15.6536 29.7156C15.1304 29.0354 14.8458 28.2019 14.8437 27.3437Z" fill="#E9BC58"/>
<path d="M17.1875 28.9062C18.0504 28.9062 18.75 28.2067 18.75 27.3438C18.75 26.4808 18.0504 25.7812 17.1875 25.7812C16.3246 25.7812 15.625 26.4808 15.625 27.3438C15.625 28.2067 16.3246 28.9062 17.1875 28.9062Z" fill="#E9BC58"/>
<path d="M6.03285 10.1562C5.86087 9.85837 5.59541 9.62557 5.27763 9.49394C4.95985 9.36231 4.60752 9.33922 4.27528 9.42824C3.94304 9.51726 3.64946 9.71343 3.44007 9.98631C3.23068 10.2592 3.11719 10.5935 3.11719 10.9375C3.11719 11.2815 3.23068 11.6158 3.44007 11.8887C3.64946 12.1616 3.94304 12.3577 4.27528 12.4468C4.60752 12.5358 4.95985 12.5127 5.27763 12.3811C5.59541 12.2494 5.86087 12.0166 6.03285 11.7188H14.8836C14.9239 12.2452 15.0054 12.7676 15.1274 13.2812H12.5C12.2929 13.2813 12.0942 13.3636 11.9477 13.5102L10.6141 14.8438H8.3766C8.20462 14.5459 7.93916 14.3131 7.62138 14.1814C7.3036 14.0498 6.95127 14.0267 6.61903 14.1157C6.28679 14.2048 5.99321 14.4009 5.78382 14.6738C5.57443 14.9467 5.46094 15.281 5.46094 15.625C5.46094 15.969 5.57443 16.3033 5.78382 16.5762C5.99321 16.8491 6.28679 17.0452 6.61903 17.1343C6.95127 17.2233 7.3036 17.2002 7.62138 17.0686C7.93916 16.9369 8.20462 16.7041 8.3766 16.4062H10.9375C11.1447 16.4062 11.3434 16.3239 11.4899 16.1773L12.8235 14.8438H15.625C16.3962 16.6946 17.698 18.2758 19.3664 19.388C21.0347 20.5002 22.9949 21.0938 25 21.0938C27.0051 21.0938 28.9654 20.5002 30.6337 19.388C32.3021 18.2758 33.6039 16.6946 34.375 14.8438H37.179L38.5125 16.1773C38.6584 16.3233 38.8562 16.4056 39.0625 16.4062H41.6235C41.7955 16.7041 42.0609 16.9369 42.3787 17.0686C42.6965 17.2002 43.0488 17.2233 43.3811 17.1343C43.7133 17.0452 44.0069 16.8491 44.2163 16.5762C44.4256 16.3033 44.5391 15.969 44.5391 15.625C44.5391 15.281 44.4256 14.9467 44.2163 14.6738C44.0069 14.4009 43.7133 14.2048 43.3811 14.1157C43.0488 14.0267 42.6965 14.0498 42.3787 14.1814C42.0609 14.3131 41.7955 14.5459 41.6235 14.8438H39.386L38.0524 13.5102C37.9059 13.3636 37.7072 13.2813 37.5 13.2812H34.8727C34.9947 12.7676 35.0762 12.2452 35.1164 11.7188H43.9672C44.1392 12.0166 44.4047 12.2494 44.7225 12.3811C45.0402 12.5127 45.3926 12.5358 45.7248 12.4468C46.057 12.3577 46.3506 12.1616 46.56 11.8887C46.7694 11.6158 46.8829 11.2815 46.8829 10.9375C46.8829 10.5935 46.7694 10.2592 46.56 9.98631C46.3506 9.71343 46.057 9.51726 45.7248 9.42824C45.3926 9.33922 45.0402 9.36231 44.7225 9.49394C44.4047 9.62557 44.1392 9.85837 43.9672 10.1562H35.1164C35.0762 9.62984 34.9947 9.1074 34.8727 8.59375H37.5C37.7072 8.59371 37.9059 8.51137 38.0524 8.36484L39.386 7.03125H41.6235C41.7955 7.32913 42.0609 7.56193 42.3787 7.69356C42.6965 7.82519 43.0488 7.84828 43.3811 7.75926C43.7133 7.67024 44.0069 7.47407 44.2163 7.20119C44.4256 6.92831 44.5391 6.59396 44.5391 6.25C44.5391 5.90604 44.4256 5.57169 44.2163 5.29881C44.0069 5.02593 43.7133 4.82976 43.3811 4.74074C43.0488 4.65172 42.6965 4.67481 42.3787 4.80644C42.0609 4.93807 41.7955 5.17087 41.6235 5.46875H39.0625C38.8554 5.46879 38.6567 5.55113 38.5102 5.69766L37.1766 7.03125H34.375C33.6039 5.18039 32.3021 3.59922 30.6337 2.48699C28.9654 1.37476 27.0051 0.78125 25 0.78125C22.9949 0.78125 21.0347 1.37476 19.3664 2.48699C17.698 3.59922 16.3962 5.18039 15.625 7.03125H12.8235L11.4899 5.69766C11.3434 5.55113 11.1447 5.46879 10.9375 5.46875H8.3766C8.20462 5.17087 7.93916 4.93807 7.62138 4.80644C7.3036 4.67481 6.95127 4.65172 6.61903 4.74074C6.28679 4.82976 5.99321 5.02593 5.78382 5.29881C5.57443 5.57169 5.46094 5.90604 5.46094 6.25C5.46094 6.59396 5.57443 6.92831 5.78382 7.20119C5.99321 7.47407 6.28679 7.67024 6.61903 7.75926C6.95127 7.84828 7.3036 7.82519 7.62138 7.69356C7.93916 7.56193 8.20462 7.32913 8.3766 7.03125H10.6141L11.9477 8.36484C12.0942 8.51137 12.2929 8.59371 12.5 8.59375H15.1274C15.0054 9.10741 14.9239 9.62984 14.8836 10.1562H6.03285ZM19.5696 11.7188C19.636 12.7832 19.8435 13.834 20.1868 14.8438H17.3547C16.8538 13.8702 16.5453 12.8091 16.4461 11.7188H19.5696ZM24.1789 18.3875C23.5872 17.7908 23.0687 17.1257 22.6344 16.4062H24.2188V18.4266L24.1789 18.3875ZM25.7805 18.4266V16.4062H27.3649C26.9303 17.1257 26.4116 17.7908 25.8196 18.3875L25.7805 18.4266ZM25.7813 14.8438V11.7188H28.868C28.7921 12.7908 28.5518 13.8448 28.1555 14.8438H25.7813ZM25.7813 10.1562V7.03125H28.1555C28.5519 8.03022 28.7922 9.08421 28.868 10.1562H25.7813ZM25.7813 5.46875V3.44844L25.8204 3.4875C26.4124 4.08436 26.9314 4.74944 27.3664 5.46875H25.7813ZM24.2188 3.44844V5.46875H22.6336C23.0687 4.74944 23.5877 4.08436 24.1797 3.4875L24.2188 3.44844ZM24.2188 7.03125V10.1562H21.1321C21.2079 9.08421 21.4482 8.03021 21.8446 7.03125H24.2188ZM24.2188 11.7188V14.8438H21.8446C21.4483 13.8448 21.208 12.7908 21.1321 11.7188H24.2188ZM18.3758 16.4062H20.8422C21.3723 17.4461 22.0502 18.4037 22.8547 19.2492C21.0997 18.7966 19.5323 17.8017 18.3758 16.4062ZM27.1454 19.2492C27.9499 18.4037 28.6278 17.4461 29.1579 16.4062H31.6243C30.4678 17.8017 28.9004 18.7966 27.1454 19.2492ZM32.6454 14.8438H29.8133C30.1569 13.8341 30.3645 12.7832 30.4305 11.7188H33.5555C33.4559 12.8092 33.1468 13.8703 32.6454 14.8438ZM30.4305 10.1562C30.3641 9.09184 30.1566 8.04098 29.8133 7.03125H32.6454C33.1465 8.00473 33.455 9.06581 33.5539 10.1562H30.4305ZM31.6243 5.46875H29.1579C28.6278 4.42892 27.9499 3.47133 27.1454 2.62578C28.9004 3.07837 30.4678 4.07328 31.6243 5.46875ZM22.8547 2.62578C22.0502 3.47133 21.3723 4.42892 20.8422 5.46875H18.3758C19.5323 4.07328 21.0997 3.07837 22.8547 2.62578ZM17.3547 7.03125H20.1868C19.8435 8.04098 19.636 9.09184 19.5696 10.1562H16.4446C16.5441 9.06573 16.8531 8.00466 17.3547 7.03125Z" fill="#E9BC58"/>
</svg>
