<svg width="50" height="50" viewBox="0 0 50 50" fill="none" xmlns="http://www.w3.org/2000/svg">
<g clip-path="url(#clip0)">
<path d="M18.3466 22.8658V21.4491H5.67529V45.5358H11.1059V44.1191H7.14319V22.8658H18.3466Z" fill="#E9BC58"/>
<path d="M3.22913 21.2127C3.22913 20.0409 4.21637 19.0875 5.43059 19.0875H22.8332V17.6708H5.43059C3.40727 17.6708 1.76123 19.2594 1.76123 21.2127V35.8539H3.22913V21.2127Z" fill="#E9BC58"/>
<path d="M50 16.8135V11.4837C50 9.53044 48.354 7.94141 46.3306 7.94141H42.7662V9.35847H46.3306C47.5449 9.35847 48.5321 10.3115 48.5321 11.4837V13.6089H33.366V11.4837C33.366 10.3115 34.3536 9.35847 35.5675 9.35847H41.2983V7.94141H35.5675C33.5442 7.94141 31.8981 9.53044 31.8981 11.4837V17.6708H24.3011V19.0875H31.8981V21.4491H19.8139V22.8658H31.8981V37.932C31.8981 39.8853 33.5442 41.4743 35.5675 41.4743H42.857V44.1191H12.5732V45.5358H44.3249V41.4743H46.3306C46.4798 41.4743 46.6267 41.4647 46.7709 41.4478V47.8975H31.2134V48.606C31.2134 48.9444 30.928 49.2199 30.5775 49.2199H19.4225C19.072 49.2199 18.7866 48.9444 18.7866 48.606V47.8975H8.14247V49.3142H17.4511C17.7494 50.086 18.5207 50.6366 19.4225 50.6366H30.5775C31.4793 50.6366 32.2506 50.086 32.5489 49.3142H48.5321V51.0619C48.5321 52.2337 47.5449 53.1871 46.3306 53.1871H3.66936C2.45514 53.1871 1.4679 52.2337 1.4679 51.0619V49.3142H6.67458V47.8975H3.22914V37.271H1.76125V47.8975H0V51.0619C0 53.0152 1.64604 54.6038 3.66936 54.6038H46.3306C48.354 54.6038 50 53.0152 50 51.0619V47.8975H48.2388V40.9565C49.2943 40.3338 50 39.211 50 37.932V18.2306H48.5321V31.556H33.366V15.026H48.5321V16.8135H50ZM48.5321 32.9731V37.932C48.5321 39.1038 47.5449 40.0572 46.3306 40.0572H35.5675C34.3536 40.0572 33.366 39.1038 33.366 37.932V32.9731H48.5321Z" fill="#E9BC58"/>
<path d="M43.1509 34.3896H38.7476V38.6405H43.1509V34.3896ZM41.683 37.2234H40.2155V35.8067H41.683V37.2234Z" fill="#E9BC58"/>
<path d="M26.1255 32.0755C26.1255 28.5597 23.1627 25.6995 19.5208 25.6995C15.8789 25.6995 12.916 28.5597 12.916 32.0755C12.916 35.5913 15.8789 38.4515 19.5208 38.4515C23.1627 38.4515 26.1255 35.5913 26.1255 32.0755ZM19.5208 37.0345C16.688 37.0345 14.3839 34.8098 14.3839 32.0755C14.3839 29.3412 16.688 27.1165 19.5208 27.1165C22.3532 27.1165 24.6577 29.3412 24.6577 32.0755C24.6577 34.8098 22.3532 37.0345 19.5208 37.0345Z" fill="#E9BC58"/>
<path d="M34.8335 23.2908C34.8335 26.5462 37.577 29.1947 40.9492 29.1947C44.321 29.1947 47.0646 26.5462 47.0646 23.2908C47.0646 20.0357 44.321 17.3872 40.9492 17.3872C37.577 17.3872 34.8335 20.0357 34.8335 23.2908ZM45.5967 23.2908C45.5967 25.7647 43.5119 27.7776 40.9492 27.7776C38.3865 27.7776 36.3014 25.7647 36.3014 23.2908C36.3014 20.8168 38.3865 18.8043 40.9492 18.8043C43.5119 18.8043 45.5967 20.8168 45.5967 23.2908Z" fill="#E9BC58"/>
<path d="M36.0566 10.7751H37.5242V12.1922H36.0566V10.7751Z" fill="#E9BC58"/>
<path d="M44.3735 10.7751H45.8414V12.1922H44.3735V10.7751Z" fill="#E9BC58"/>
<path d="M38.9922 10.7751H42.9061V12.1922H38.9922V10.7751Z" fill="#E9BC58"/>
<path d="M18.7866 39.8683H20.2545V41.2853H18.7866V39.8683Z" fill="#E9BC58"/>
<path d="M21.7222 39.8683H23.1901V41.2853H21.7222V39.8683Z" fill="#E9BC58"/>
<path d="M15.8511 39.8683H17.319V41.2853H15.8511V39.8683Z" fill="#E9BC58"/>
<path d="M18.444 33.1521L17.0062 31.7638L15.9683 32.7654L18.444 35.1554L23.0728 30.6873L22.0348 29.6857L18.444 33.1521Z" fill="#E9BC58"/>
<path d="M38.6304 22.79L37.5928 23.792L40.0685 26.182L44.3055 22.0918L43.2679 21.0897L40.0685 24.1783L38.6304 22.79Z" fill="#E9BC58"/>
</g>
<defs>
<clipPath id="clip0">
<rect width="50" height="50" fill="white"/>
</clipPath>
</defs>
</svg>
