<svg width="50" height="35" viewBox="0 0 50 35" fill="none" xmlns="http://www.w3.org/2000/svg">
<path d="M29.0323 15.0573C29.0323 13.7856 28.0008 12.7227 26.6129 12.4167V10.9507H25V12.3195H24.1936V10.9507H22.5807V12.3195H20.9678V13.6884H21.7742V20.5327H20.9678V21.9015H22.5807V23.2704H24.1936V21.9015H25V23.2704H26.6129V21.8044C28.0008 21.4984 29.0323 20.4355 29.0323 19.1638C29.0323 18.3425 28.5952 17.6129 27.9178 17.1105C28.5952 16.6082 29.0323 15.8786 29.0323 15.0573ZM27.4194 19.1638C27.4194 19.9188 26.696 20.5327 25.8065 20.5327H23.3871V17.795H25.8065C26.696 17.795 27.4194 18.4089 27.4194 19.1638ZM23.3871 16.4261V13.6884H25.8065C26.696 13.6884 27.4194 14.3023 27.4194 15.0573C27.4194 15.8122 26.696 16.4261 25.8065 16.4261H23.3871Z" fill="#E9BC58"/>
<path d="M25.0002 8.89746C19.6639 8.89746 15.3228 12.5817 15.3228 17.1105C15.3228 21.6394 19.6639 25.3236 25.0002 25.3236C30.3364 25.3236 34.6776 21.6394 34.6776 17.1105C34.6776 12.5817 30.3364 8.89746 25.0002 8.89746ZM25.0002 23.9548C20.5534 23.9548 16.9357 20.8844 16.9357 17.1105C16.9357 13.3366 20.5534 10.2663 25.0002 10.2663C29.4469 10.2663 33.0647 13.3366 33.0647 17.1105C33.0647 20.8844 29.4469 23.9548 25.0002 23.9548Z" fill="#E9BC58"/>
<path d="M16.9355 23.2705H8.87096C8.54515 23.2705 8.24999 23.4375 8.1258 23.6928C8.0008 23.9487 8.07015 24.243 8.3008 24.4388L10.1322 25.993C7.7629 27.7731 4.74758 28.7457 1.55564 28.7457H0V30.1144H1.55564C5.44838 30.1144 9.10886 28.8278 11.8605 26.4919C12.1758 26.2244 12.1758 25.7918 11.8605 25.5242L10.8177 24.6393H16.129V29.1467L15.0863 28.2618C14.771 27.9942 14.2613 27.9942 13.946 28.2618C10.4581 31.2218 5.82016 32.852 0.887902 32.852H0V34.2208H0.887902C5.98064 34.2208 10.7855 32.6221 14.5056 29.7038L16.3661 31.2827C16.5976 31.4791 16.9435 31.5373 17.2451 31.4312C17.5468 31.3251 17.7419 31.0753 17.7419 30.7988V23.9549C17.7419 23.5771 17.3814 23.2705 16.9355 23.2705Z" fill="#E9BC58"/>
<path d="M10.1322 8.2274L8.3008 9.78171C8.07015 9.97746 8.0008 10.2718 8.1258 10.5277C8.24999 10.7837 8.54515 10.9507 8.87096 10.9507H16.9355C17.3814 10.9507 17.7419 10.6441 17.7419 10.2663V3.42209C17.7419 3.14559 17.5459 2.89578 17.2443 2.78969C16.9419 2.68429 16.5959 2.74247 16.3653 2.93821L14.5048 4.51716C10.7855 1.5988 5.98064 0 0.887902 0H0V1.36884H0.887902C5.82016 1.36884 10.4581 2.99912 13.946 5.95923C14.2613 6.22684 14.771 6.22684 15.0863 5.95923L16.129 5.07428V9.58186H10.8177L11.8605 8.69691C12.1758 8.4293 12.1758 7.99675 11.8605 7.72914C9.10886 5.39322 5.44838 4.10651 1.55564 4.10651H0V5.47535H1.55564C4.74758 5.47535 7.7629 6.44791 10.1322 8.2274Z" fill="#E9BC58"/>
<path d="M39.868 25.9937L41.6994 24.4395C41.9301 24.2437 41.9994 23.9494 41.8744 23.6935C41.7502 23.4375 41.4551 23.2705 41.1293 23.2705H33.0648C32.6188 23.2705 32.2583 23.5771 32.2583 23.9549V30.7988C32.2583 31.0753 32.4543 31.3251 32.7559 31.4312C33.0575 31.5366 33.4043 31.4791 33.6349 31.2827L35.4954 29.7038C39.2147 32.6214 44.0196 34.2208 49.1131 34.2208H50.0002V32.852H49.1123C44.1801 32.852 39.5422 31.2218 36.0543 28.2618C35.7389 27.9942 35.2293 27.9942 34.9139 28.2618L33.8712 29.1467V24.6393H39.1825L38.1397 25.5242C37.8244 25.7918 37.8244 26.2244 38.1397 26.4919C40.8914 28.8278 44.5518 30.1144 48.4446 30.1144H50.0002V28.7457H48.4446C45.2526 28.7457 42.2373 27.7731 39.868 25.9937Z" fill="#E9BC58"/>
<path d="M34.9139 5.95923C35.2293 6.22684 35.7389 6.22684 36.0543 5.95923C39.5422 2.99912 44.1801 1.36884 49.1123 1.36884H50.0002V0H49.1123C44.0196 0 39.2147 1.5988 35.4946 4.51716L33.6341 2.93821C33.4035 2.74247 33.0575 2.68429 32.7551 2.78969C32.4543 2.89578 32.2583 3.14559 32.2583 3.42209V10.2663C32.2583 10.6441 32.6188 10.9507 33.0648 10.9507H41.1293C41.4551 10.9507 41.7502 10.7837 41.8744 10.5284C41.9994 10.2724 41.9301 9.97814 41.6994 9.7824L39.868 8.22808C42.2373 6.44791 45.2526 5.47535 48.4446 5.47535H50.0002V4.10651H48.4446C44.5518 4.10651 40.8914 5.39322 38.1397 7.72914C37.8244 7.99675 37.8244 8.4293 38.1397 8.69691L39.1825 9.58186H33.8712V5.07428L34.9139 5.95923Z" fill="#E9BC58"/>
</svg>
