<svg width="50" height="50" viewBox="0 0 50 50" fill="none" xmlns="http://www.w3.org/2000/svg">
<path d="M35.8063 35.5039C35.6609 35.2867 35.4172 35.1562 35.1562 35.1562H34.0117L32.6813 33.1602C32.5359 32.943 32.2922 32.8125 32.0312 32.8125H30.8867L29.5563 30.8164C29.4109 30.5992 29.1672 30.4688 28.9062 30.4688H27.3438C27.0828 30.4688 26.8391 30.5992 26.6937 30.8164L26.5625 31.0133V25.6695C32.7508 24.8937 37.5 19.5969 37.5 13.2812C37.5 6.38906 31.8922 0.78125 25 0.78125C18.1078 0.78125 12.5 6.38906 12.5 13.2812C12.5 18.9859 16.4086 23.9656 21.875 25.3758V35.1562C21.875 35.2398 21.8891 35.3234 21.9156 35.4031L22.5078 37.1805L20.6609 38.4117C20.3977 38.5875 20.2664 38.9047 20.3281 39.2148L21.1094 43.1211C21.1258 43.2031 21.1555 43.282 21.1969 43.3555L24.3219 48.8242C24.4609 49.0687 24.7203 49.2188 25 49.2188H34.375C34.6875 49.2188 34.9703 49.0328 35.093 48.7453L37.4367 43.2766C37.4789 43.1797 37.5 43.075 37.5 42.9688V38.2812C37.5 38.1273 37.4539 37.9758 37.3688 37.8477L35.8063 35.5039ZM14.0625 13.2812C14.0625 7.25 18.9688 2.34375 25 2.34375C31.0312 2.34375 35.9375 7.25 35.9375 13.2812C35.9375 18.8008 31.7914 23.432 26.3875 24.1187C26.0383 23.2625 25.1992 22.6562 24.2188 22.6562C23.3484 22.6562 22.5961 23.1391 22.1914 23.8453C17.4469 22.5867 14.0625 18.2477 14.0625 13.2812ZM35.9375 42.8086L33.8602 47.6562H25.4531L22.6164 42.6914L21.9625 39.4227L23.0203 38.718L23.4781 40.0914L24.9594 39.5969L23.4375 35.0297V25C23.4375 24.5688 23.7875 24.2188 24.2188 24.2188C24.65 24.2188 25 24.5688 25 25V33.5938C25 33.9375 25.225 34.2414 25.5547 34.3414C25.8828 34.443 26.2406 34.3133 26.4313 34.0273L27.7617 32.0312H28.4883L29.8187 34.0273C29.9641 34.2445 30.2078 34.375 30.4688 34.375H31.6133L32.9437 36.3711C33.0891 36.5883 33.3328 36.7188 33.5938 36.7188H34.7383L35.9375 38.518V42.8086Z" fill="#CFB16D"/>
<path d="M25 7.8125H24.2188V6.25H22.6562V7.8125H21.0938V9.375H21.875V17.1875H21.0938V18.75H22.6562V20.3125H24.2188V18.75H25V20.3125H26.5625V18.6391C27.907 18.2898 28.9062 17.0773 28.9062 15.625C28.9062 14.6867 28.4828 13.8547 27.8266 13.2812C28.4828 12.7078 28.9062 11.8758 28.9062 10.9375C28.9062 9.48516 27.907 8.27266 26.5625 7.92344V6.25H25V7.8125ZM27.3438 15.625C27.3438 16.4867 26.643 17.1875 25.7812 17.1875H23.4375V14.0625H25.7812C26.643 14.0625 27.3438 14.7633 27.3438 15.625ZM27.3438 10.9375C27.3438 11.7992 26.643 12.5 25.7812 12.5H23.4375V9.375H25.7812C26.643 9.375 27.3438 10.0758 27.3438 10.9375Z" fill="#CFB16D"/>
<path d="M25 22.6562C30.1695 22.6562 34.375 18.4508 34.375 13.2812H32.8125C32.8125 17.5891 29.3078 21.0938 25 21.0938V22.6562Z" fill="#CFB16D"/>
<path d="M25 3.90625C19.8305 3.90625 15.625 8.11172 15.625 13.2812H17.1875C17.1875 8.97344 20.6922 5.46875 25 5.46875V3.90625Z" fill="#CFB16D"/>
</svg>
