<svg width="50" height="50" viewBox="0 0 50 50" fill="none" xmlns="http://www.w3.org/2000/svg">
<path d="M48.8467 27.3699C48.6978 26.9935 48.2718 26.8095 47.8962 26.9584C47.52 27.1072 47.3358 27.5328 47.4847 27.9088C48.1816 29.6702 48.5352 31.5324 48.5352 33.444C48.5352 41.7427 41.7836 48.4943 33.485 48.4943C25.1862 48.4943 18.4347 41.7427 18.4347 33.444C18.4347 33.2831 18.4379 33.1213 18.4431 32.9597C19.3388 32.8557 20.2199 32.679 21.0798 32.4322C21.0527 32.7685 21.0389 33.1066 21.0389 33.444C21.0389 40.3068 26.6222 45.8901 33.485 45.8901C40.3477 45.8901 45.931 40.3068 45.931 33.444C45.931 26.5812 40.3477 20.9978 33.4849 20.9978C33.1276 20.9978 32.7699 21.0131 32.4142 21.0435C32.6557 20.1839 32.8275 19.3018 32.9272 18.404C33.1132 18.3972 33.2995 18.3936 33.4849 18.3936C38.665 18.3936 43.418 21.0083 46.199 25.3879C46.3386 25.6076 46.5756 25.7277 46.818 25.7277C46.9522 25.7277 47.0882 25.6908 47.21 25.6134C47.5515 25.3966 47.6524 24.9441 47.4356 24.6025C44.3844 19.7974 39.1691 16.9287 33.485 16.9287C33.3323 16.9287 33.179 16.9315 33.0258 16.9357C33.0286 16.8092 33.0304 16.6827 33.0304 16.5557C33.0304 7.44928 25.6217 0.0405884 16.5152 0.0405884C11.2455 0.0405884 6.32949 2.5399 3.21387 6.76666C2.97383 7.09225 3.04326 7.55074 3.36885 7.79078C3.69443 8.03082 4.15293 7.96149 4.39297 7.6358C7.14814 3.89801 11.5652 1.50543 16.5152 1.50543C24.814 1.50543 31.5655 8.257 31.5655 16.5557C31.5655 20.5248 30.0333 24.2702 27.2509 27.1021C26.9674 27.3906 26.9715 27.8544 27.2601 28.1378C27.4026 28.278 27.588 28.3477 27.7733 28.3477C27.9629 28.3477 28.1524 28.2746 28.2958 28.1286C29.8822 26.5139 31.0973 24.6282 31.8995 22.5784C32.4224 22.5029 32.9539 22.4624 33.485 22.4624C39.54 22.4624 44.4661 27.3885 44.4661 33.4436C44.4661 39.4987 39.54 44.4249 33.485 44.4249C27.4299 44.4249 22.5036 39.499 22.5036 33.444C22.5036 32.9301 22.5415 32.4155 22.6122 31.9092C23.7836 31.4433 24.9046 30.8407 25.956 30.107C26.2877 29.8755 26.3689 29.4189 26.1374 29.0873C25.9059 28.7556 25.4493 28.6743 25.1176 28.9058C22.5863 30.6725 19.6116 31.6063 16.5151 31.6063C8.21641 31.6062 1.46484 24.8547 1.46484 16.5559C1.46484 14.2803 1.95996 12.094 2.93643 10.0573C3.11133 9.69264 2.95742 9.25514 2.59268 9.08024C2.22803 8.90524 1.79043 9.05924 1.61563 9.42408C0.543555 11.6598 0 14.0594 0 16.5559C0 25.6624 7.40869 33.0711 16.5151 33.0711C16.6691 33.0711 16.8229 33.0682 16.9763 33.064C16.9734 33.1908 16.9697 33.3177 16.9697 33.444C16.9697 42.5505 24.3784 49.9591 33.4849 49.9591C42.5913 49.9591 49.9999 42.5505 49.9999 33.444C50 31.347 49.6119 29.3035 48.8467 27.3699Z" fill="#CFB16D"/>
<path d="M16.5149 29.0021C23.3777 29.0021 28.961 23.4188 28.961 16.556C28.961 9.69316 23.3777 4.10986 16.5149 4.10986C9.65215 4.10986 4.06885 9.69316 4.06885 16.556C4.06885 23.4188 9.65215 29.0021 16.5149 29.0021ZM16.5149 5.57471C22.57 5.57471 27.4962 10.5009 27.4962 16.556C27.4962 22.611 22.57 27.5372 16.5149 27.5372C10.4599 27.5372 5.53369 22.611 5.53369 16.556C5.53369 10.5009 10.4599 5.57471 16.5149 5.57471Z" fill="#CFB16D"/>
<path d="M29.0679 32.9409C28.6633 32.9409 28.3354 33.2687 28.3354 33.6733C28.3354 34.0779 28.6633 34.4057 29.0679 34.4057H31.1743L31.2158 34.763C31.3713 36.1539 31.2667 36.6991 30.1893 38.1452L29.1391 39.4656C28.9648 39.6847 28.9307 39.9842 29.0513 40.2368C29.1719 40.4894 29.4259 40.6514 29.7059 40.6539L37.8955 40.7263H37.902C38.3035 40.7263 38.6307 40.4027 38.6344 40.0004C38.6379 39.5959 38.3129 39.2651 37.9084 39.2615L31.22 39.2024L31.3429 39.048C31.3476 39.042 31.3522 39.036 31.3567 39.03C32.6072 37.3535 32.8774 36.4428 32.6712 34.597L32.6489 34.4056H34.8194C35.224 34.4056 35.5518 34.0778 35.5518 33.6732C35.5518 33.2686 35.224 32.9408 34.8194 32.9408H32.3226C32.0589 32.5614 31.0994 31.0911 31.1051 29.7905C31.1051 29.7895 31.105 29.7886 31.105 29.7876C31.105 29.7866 31.1051 29.7857 31.1051 29.7847C31.1023 29.0206 31.4482 28.437 32.133 28.0503C33.1208 27.4929 34.66 27.4867 35.5645 28.0366C36.2797 28.4713 36.8031 29.0707 36.9645 29.6398C37.0749 30.0289 37.4804 30.2549 37.869 30.1445C38.2581 30.0342 38.4842 29.6293 38.3737 29.24C38.1101 28.3107 37.3636 27.4159 36.3255 26.7849C34.9721 25.9619 32.86 25.9574 31.4128 26.7747C30.2686 27.4209 29.6396 28.4874 29.6405 29.7784C29.6405 29.7804 29.6402 29.7822 29.6402 29.7841C29.6402 29.7852 29.6403 29.7865 29.6403 29.7877C29.6403 29.7884 29.6402 29.789 29.6402 29.7897C29.6402 29.7905 29.6403 29.7913 29.6403 29.7921C29.6377 30.9593 30.1563 32.1426 30.6001 32.9406H29.0679V32.9409Z" fill="#CFB16D"/>
<path d="M35.4419 5.70874H39.9239V11.3202L38.2418 9.91938C37.9309 9.66069 37.4691 9.70278 37.2103 10.0135C36.9515 10.3245 36.9936 10.7862 37.3044 11.0451L40.1876 13.446C40.3234 13.559 40.4898 13.6156 40.6564 13.6156C40.8228 13.6156 40.9893 13.559 41.125 13.446L44.0083 11.0451C44.3192 10.7863 44.3613 10.3244 44.1025 10.0136C43.8437 9.70249 43.3817 9.66069 43.0711 9.91938L41.3888 11.3203V4.97632C41.3888 4.57173 41.0609 4.2439 40.6564 4.2439H35.4419C35.0373 4.2439 34.7095 4.57173 34.7095 4.97632C34.7095 5.38091 35.0374 5.70874 35.4419 5.70874Z" fill="#CFB16D"/>
<path d="M14.5577 44.373H10.0757V38.7615L11.7578 40.1623C12.0686 40.421 12.5305 40.379 12.7893 40.0682C13.0481 39.7572 13.006 39.2955 12.6951 39.0366L9.81191 36.6356C9.54033 36.4097 9.14609 36.4096 8.87451 36.6356L5.99131 39.0365C5.68047 39.2953 5.63828 39.7572 5.89717 40.068C6.04199 40.242 6.25039 40.3317 6.46035 40.3317C6.62559 40.3317 6.7918 40.2762 6.92861 40.1622L8.61084 38.7614V45.1053C8.61084 45.5099 8.93877 45.8377 9.34326 45.8377H14.5577C14.9622 45.8377 15.2901 45.5099 15.2901 45.1053C15.2901 44.7007 14.9622 44.373 14.5577 44.373Z" fill="#CFB16D"/>
<path d="M16.4062 10.7292H15.625V9.16669H14.0625V10.7292H12.5V12.2917H13.2812V20.1042H12.5V21.6667H14.0625V23.2292H15.625V21.6667H16.4062V23.2292H17.9688V21.5557C19.3133 21.2065 20.3125 19.994 20.3125 18.5417C20.3125 17.6034 19.8891 16.7714 19.2328 16.1979C19.8891 15.6245 20.3125 14.7925 20.3125 13.8542C20.3125 12.4018 19.3133 11.1893 17.9688 10.8401V9.16669H16.4062V10.7292ZM18.75 18.5417C18.75 19.4034 18.0492 20.1042 17.1875 20.1042H14.8438V16.9792H17.1875C18.0492 16.9792 18.75 17.68 18.75 18.5417ZM18.75 13.8542C18.75 14.7159 18.0492 15.4167 17.1875 15.4167H14.8438V12.2917H17.1875C18.0492 12.2917 18.75 12.9925 18.75 13.8542Z" fill="#CFB16D"/>
</svg>
