<svg width="50" height="50" viewBox="0 0 50 50" fill="none" xmlns="http://www.w3.org/2000/svg">
<path d="M14.8438 17.1875H16.4062V15.625H17.1875V17.1875H18.75V15.5141C20.0938 15.1648 21.0938 13.9516 21.0938 12.5C21.0938 11.5625 20.6703 10.7297 20.0141 10.1562C20.6703 9.58281 21.0938 8.75 21.0938 7.8125C21.0938 6.36094 20.0938 5.14766 18.75 4.79844V3.125H17.1875V4.6875H16.4062V3.125H14.8438V4.6875H13.2812V6.25H14.0625V14.0625H13.2812V15.625H14.8438V17.1875ZM17.9688 6.25C18.8305 6.25 19.5312 6.95078 19.5312 7.8125C19.5312 8.67422 18.8305 9.375 17.9688 9.375H15.625V6.25H17.9688ZM15.625 10.9375H17.9688C18.8305 10.9375 19.5312 11.6383 19.5312 12.5C19.5312 13.3617 18.8305 14.0625 17.9688 14.0625H15.625V10.9375Z" fill="#CFB16D"/>
<path d="M17.1875 19.5312C22.357 19.5312 26.5625 15.3258 26.5625 10.1562C26.5625 4.98672 22.357 0.78125 17.1875 0.78125C12.018 0.78125 7.8125 4.98672 7.8125 10.1562C7.8125 15.3258 12.018 19.5312 17.1875 19.5312ZM17.1875 2.34375C21.4953 2.34375 25 5.84844 25 10.1562C25 14.4641 21.4953 17.9688 17.1875 17.9688C12.8797 17.9688 9.375 14.4641 9.375 10.1562C9.375 5.84844 12.8797 2.34375 17.1875 2.34375Z" fill="#CFB16D"/>
<path d="M39.8438 27.3438C34.6742 27.3438 30.4688 31.5492 30.4688 36.7188C30.4688 41.8883 34.6742 46.0938 39.8438 46.0938C45.0133 46.0938 49.2188 41.8883 49.2188 36.7188C49.2188 31.5492 45.0133 27.3438 39.8438 27.3438ZM39.8438 44.5312C35.5359 44.5312 32.0312 41.0266 32.0312 36.7188C32.0312 32.4109 35.5359 28.9062 39.8438 28.9062C44.1516 28.9062 47.6562 32.4109 47.6562 36.7188C47.6562 41.0266 44.1516 44.5312 39.8438 44.5312Z" fill="#CFB16D"/>
<path d="M39.8438 32.8125C40.7055 32.8125 41.4062 33.5133 41.4062 34.375H42.9688C42.9688 32.9234 41.9688 31.7102 40.625 31.3609V29.6875H39.0625V31.3609C37.7188 31.7102 36.7188 32.9234 36.7188 34.375C36.7188 36.0984 38.1203 37.5 39.8438 37.5C40.7055 37.5 41.4062 38.2008 41.4062 39.0625C41.4062 39.9242 40.7055 40.625 39.8438 40.625C38.982 40.625 38.2812 39.9242 38.2812 39.0625H36.7188C36.7188 40.5141 37.7188 41.7273 39.0625 42.0766V43.75H40.625V42.0766C41.9688 41.7273 42.9688 40.5141 42.9688 39.0625C42.9688 37.3391 41.5672 35.9375 39.8438 35.9375C38.982 35.9375 38.2812 35.2367 38.2812 34.375C38.2812 33.5133 38.982 32.8125 39.8438 32.8125Z" fill="#CFB16D"/>
<path d="M48.4375 0.78125H40.625V2.34375H46.7391L25.7812 26.7945V19.5312C25.7812 19.1969 25.5688 18.9 25.2523 18.7922C24.9375 18.6836 24.5859 18.7891 24.382 19.0531L5.86719 42.9688H2.34375V36.7188H6.25V35.1562H2.34375V28.9062H6.25V27.3438H2.34375V21.0938H6.25V19.5312H2.34375V13.2812H6.25V11.7188H2.34375V5.46875H6.25V3.90625H2.34375V0.78125H0.78125V48.4375C0.78125 48.8688 1.13125 49.2188 1.5625 49.2188H49.2188V47.6562H2.34375V44.5312H6.25C6.49219 44.5312 6.72031 44.4195 6.86797 44.2281L24.2188 21.8164V28.9062C24.2188 29.2328 24.4227 29.525 24.7289 29.6391C25.0344 29.7523 25.3805 29.6633 25.593 29.4148L47.6562 3.67422V9.375H49.2188V1.5625C49.2188 1.13125 48.8688 0.78125 48.4375 0.78125Z" fill="#CFB16D"/>
</svg>
