<svg width="50" height="50" viewBox="0 0 50 50" fill="none" xmlns="http://www.w3.org/2000/svg">
<path d="M12.9034 32.2581H14.5163V30.5307C15.9042 30.1702 16.9356 28.9186 16.9356 27.4194C16.9356 26.4516 16.4985 25.5919 15.8211 25C16.4985 24.4081 16.9356 23.5484 16.9356 22.5807C16.9356 21.0823 15.9042 19.8298 14.5163 19.4694V17.7419H12.9034V19.3548H12.0969V17.7419H10.484V19.3548H8.87109V20.9677H9.67755V29.0323H8.87109V30.6452H10.484V32.2581H12.0969V30.6452H12.9034V32.2581ZM13.7098 20.9677C14.5993 20.9677 15.3227 21.6911 15.3227 22.5807C15.3227 23.4702 14.5993 24.1936 13.7098 24.1936H11.2904V20.9677H13.7098ZM11.2904 25.8065H13.7098C14.5993 25.8065 15.3227 26.5298 15.3227 27.4194C15.3227 28.3089 14.5993 29.0323 13.7098 29.0323H11.2904V25.8065Z" fill="#CFB16D"/>
<path d="M12.9033 33.0645V34.6774C18.2396 34.6774 22.5807 30.3363 22.5807 25H20.9678C20.9678 29.4468 17.3501 33.0645 12.9033 33.0645Z" fill="#CFB16D"/>
<path d="M12.903 15.3226C7.56671 15.3226 3.22559 19.6637 3.22559 25H4.83849C4.83849 20.5532 8.45623 16.9355 12.903 16.9355V15.3226Z" fill="#CFB16D"/>
<path d="M37.0968 12.0968C31.5468 12.0968 26.8177 15.6258 25 20.5524C23.1823 15.6258 18.4532 12.0968 12.9032 12.0968C5.78871 12.0968 0 17.8855 0 25C0 32.1145 5.78871 37.9032 12.9032 37.9032C18.4532 37.9032 23.1823 34.3742 25 29.4476C26.8177 34.3742 31.5468 37.9032 37.0968 37.9032C44.2113 37.9032 50 32.1145 50 25C50 17.8855 44.2113 12.0968 37.0968 12.0968ZM37.0968 36.2903C35.771 36.2903 34.3419 34.046 33.5927 30.4444C34.7008 30.5718 35.8702 30.6452 37.0968 30.6452C38.3234 30.6452 39.4927 30.5718 40.6008 30.4444C39.8516 34.046 38.4226 36.2903 37.0968 36.2903ZM37.0968 29.0323C35.7427 29.0323 34.4774 28.9403 33.3121 28.7847C33.1565 27.6194 33.0645 26.3541 33.0645 25C33.0645 23.646 33.1565 22.3807 33.3121 21.2162C34.4774 21.0597 35.7427 20.9678 37.0968 20.9678C38.4508 20.9678 39.7161 21.0597 40.8815 21.2162C41.0371 22.3807 41.129 23.646 41.129 25C41.129 26.3541 41.0371 27.6194 40.8815 28.7847C39.7161 28.9403 38.4508 29.0323 37.0968 29.0323ZM31.6524 28.5041C28.0508 27.7549 25.8065 26.3258 25.8065 25C25.8065 23.6742 28.0508 22.2452 31.6524 21.496C31.525 22.6041 31.4516 23.7734 31.4516 25C31.4516 26.2266 31.525 27.396 31.6524 28.5041ZM37.0968 13.7097C38.4226 13.7097 39.8516 15.9541 40.6016 19.5549C39.4927 19.4283 38.3234 19.3549 37.0968 19.3549C35.8702 19.3549 34.7008 19.4283 33.5919 19.5549C34.3419 15.9541 35.771 13.7097 37.0968 13.7097ZM42.5411 21.496C46.1427 22.2452 48.3871 23.6742 48.3871 25C48.3871 26.3258 46.1427 27.7549 42.5411 28.5041C42.6685 27.396 42.7419 26.2266 42.7419 25C42.7419 23.7734 42.6685 22.6041 42.5411 21.496ZM47.9323 21.8549C46.5815 20.942 44.6371 20.2274 42.296 19.8C41.8694 17.4581 41.1548 15.5145 40.2411 14.1637C43.9403 15.2395 46.8573 18.1565 47.9323 21.8549ZM33.9524 14.1645C33.0387 15.5153 32.325 17.4597 31.8976 19.8008C29.5556 20.2274 27.6121 20.942 26.2613 21.8557C27.3363 18.1565 30.2532 15.2395 33.9524 14.1645ZM12.9032 36.2903C6.67742 36.2903 1.6129 31.2258 1.6129 25C1.6129 18.7742 6.67742 13.7097 12.9032 13.7097C19.129 13.7097 24.1935 18.7742 24.1935 25C24.1935 31.2258 19.129 36.2903 12.9032 36.2903ZM26.2613 28.1444C27.6121 29.0581 29.5565 29.7718 31.8976 30.1992C32.3242 32.5412 33.0387 34.4847 33.9524 35.8355C30.2532 34.7605 27.3363 31.8436 26.2613 28.1444ZM40.2411 35.8355C41.1548 34.4847 41.8694 32.5403 42.296 30.1992C44.6379 29.7726 46.5815 29.0581 47.9323 28.1444C46.8573 31.8436 43.9403 34.7605 40.2411 35.8355Z" fill="#CFB16D"/>
<path d="M25 1.6129C29.2629 1.6129 32.8314 4.6371 33.6782 8.65161L31.1492 6.62822L30.1411 7.8879L34.1734 11.1137C34.3226 11.2323 34.5 11.2903 34.6766 11.2903C34.9137 11.2903 35.1476 11.1871 35.3072 10.9879L38.533 6.95564L37.2734 5.94839L35.2806 8.43951C34.3266 3.63387 30.0806 0 25 0C19.2193 0 14.5161 4.70322 14.5161 10.4839H16.129C16.129 5.59274 20.1089 1.6129 25 1.6129Z" fill="#CFB16D"/>
<path d="M24.9999 48.3871C20.7362 48.3871 17.1684 45.3629 16.3216 41.3476L18.8507 43.3718L19.8587 42.1121L15.8265 38.8863C15.4781 38.6072 14.9708 38.6669 14.6926 39.0121L11.4668 43.0443L12.7265 44.0524L14.7192 41.5613C15.6733 46.3653 19.9192 50 24.9999 50C30.7805 50 35.4837 45.2968 35.4837 39.5161H33.8708C33.8708 44.4072 29.891 48.3871 24.9999 48.3871Z" fill="#CFB16D"/>
</svg>
