<svg width="50" height="50" viewBox="0 0 50 50" fill="none" xmlns="http://www.w3.org/2000/svg">
<path d="M49.7637 9.91371L40.0863 0.23629C39.9403 0.0903226 39.7387 0 39.5161 0H12.0968C11.6516 0 11.2903 0.36129 11.2903 0.806452V29.0734C11.0234 29.0524 10.7565 29.0323 10.4839 29.0323C4.70323 29.0323 0 33.7355 0 39.5161C0 45.2968 4.70323 50 10.4839 50H49.1936C49.6387 50 50 49.6387 50 49.1936V10.4839C50 10.2613 49.9097 10.0597 49.7637 9.91371ZM40.3226 2.75323L47.2468 9.67742H40.3226V2.75323ZM1.6129 39.5161C1.6129 34.625 5.59274 30.6452 10.4839 30.6452C15.375 30.6452 19.3548 34.625 19.3548 39.5161C19.3548 44.4073 15.375 48.3871 10.4839 48.3871C5.59274 48.3871 1.6129 44.4073 1.6129 39.5161ZM48.3871 48.3871H16.046C18.9968 46.5306 20.9677 43.2532 20.9677 39.5161C20.9677 34.5694 17.5194 30.4218 12.9032 29.325V1.6129H38.7097V10.4839C38.7097 10.929 39.071 11.2903 39.5161 11.2903H48.3871V48.3871Z" fill="#CFB16D"/>
<path d="M15.3226 16.1291H26.6129C27.058 16.1291 27.4193 15.7678 27.4193 15.3226V4.03228C27.4193 3.58712 27.058 3.22583 26.6129 3.22583H15.3226C14.8774 3.22583 14.5161 3.58712 14.5161 4.03228V15.3226C14.5161 15.7678 14.8774 16.1291 15.3226 16.1291ZM16.129 4.83873H25.8064V14.5162H16.129V4.83873Z" fill="#CFB16D"/>
<path d="M14.5161 17.7419H16.129V19.3548H14.5161V17.7419Z" fill="#CFB16D"/>
<path d="M17.7422 17.7419H46.7744V19.3548H17.7422V17.7419Z" fill="#CFB16D"/>
<path d="M14.5161 20.9677H16.129V22.5806H14.5161V20.9677Z" fill="#CFB16D"/>
<path d="M17.7422 20.9677H46.7744V22.5806H17.7422V20.9677Z" fill="#CFB16D"/>
<path d="M14.5161 24.1935H16.129V25.8064H14.5161V24.1935Z" fill="#CFB16D"/>
<path d="M17.7422 24.1935H46.7744V25.8064H17.7422V24.1935Z" fill="#CFB16D"/>
<path d="M14.5161 27.4194H16.129V29.0323H14.5161V27.4194Z" fill="#CFB16D"/>
<path d="M17.7422 27.4194H46.7744V29.0323H17.7422V27.4194Z" fill="#CFB16D"/>
<path d="M14.5165 38.7097H13.71V35.4839C13.71 33.7048 12.2632 32.2581 10.4842 32.2581C8.70519 32.2581 7.25841 33.7048 7.25841 35.4839V38.7097H6.45196C6.0068 38.7097 5.64551 39.071 5.64551 39.5161V45.9677C5.64551 46.4129 6.0068 46.7742 6.45196 46.7742H14.5165C14.9616 46.7742 15.3229 46.4129 15.3229 45.9677V39.5161C15.3229 39.071 14.9616 38.7097 14.5165 38.7097ZM8.87131 35.4839C8.87131 34.5943 9.5947 33.871 10.4842 33.871C11.3737 33.871 12.0971 34.5943 12.0971 35.4839V38.7097H8.87131V35.4839ZM13.71 45.1613H7.25841V40.3226H13.71V45.1613Z" fill="#CFB16D"/>
<path d="M9.67725 41.9355H11.2901V43.5484H9.67725V41.9355Z" fill="#CFB16D"/>
<path d="M45.1611 45.1613H46.774V46.7742H45.1611V45.1613Z" fill="#CFB16D"/>
<path d="M41.9355 45.1613H43.5484V46.7742H41.9355V45.1613Z" fill="#CFB16D"/>
<path d="M25 45.1613H40.3226V46.7742H25V45.1613Z" fill="#CFB16D"/>
<path d="M45.1611 41.9355H46.774V43.5484H45.1611V41.9355Z" fill="#CFB16D"/>
<path d="M41.9355 41.9355H43.5484V43.5484H41.9355V41.9355Z" fill="#CFB16D"/>
<path d="M25 41.9355H40.3226V43.5484H25V41.9355Z" fill="#CFB16D"/>
</svg>
