<svg width="50" height="50" viewBox="0 0 50 50" fill="none" xmlns="http://www.w3.org/2000/svg">
<path d="M10.1562 45.3125H14.8438V46.875H10.1562V45.3125Z" fill="#CFB16D"/>
<path d="M16.4062 28.9063C16.4062 27.4547 15.4062 26.2414 14.0625 25.8922V24.2188H12.5V25.7813H11.7188V24.2188H10.1562V25.7813H8.59375V27.3438H9.375V35.1563H8.59375V36.7188H10.1562V38.2813H11.7188V36.7188H12.5V38.2813H14.0625V36.6078C15.4062 36.2586 16.4062 35.0453 16.4062 33.5938C16.4062 32.6563 15.9828 31.8234 15.3266 31.25C15.9828 30.6766 16.4062 29.8438 16.4062 28.9063ZM14.8438 33.5938C14.8438 34.4555 14.143 35.1563 13.2812 35.1563H10.9375V32.0313H13.2812C14.143 32.0313 14.8438 32.732 14.8438 33.5938ZM10.9375 30.4688V27.3438H13.2812C14.143 27.3438 14.8438 28.0445 14.8438 28.9063C14.8438 29.768 14.143 30.4688 13.2812 30.4688H10.9375Z" fill="#CFB16D"/>
<path d="M46.8752 0.781265H28.1252C26.833 0.781265 25.7814 1.83283 25.7814 3.12501H19.5314V1.56251C19.5314 1.24689 19.3408 0.961733 19.0494 0.84064C18.7564 0.719546 18.4213 0.785952 18.1979 1.01017L14.2916 4.91642C13.9861 5.22189 13.9861 5.71564 14.2916 6.02111L18.1979 9.92736C18.4213 10.15 18.7557 10.2172 19.0494 10.0969C19.3408 9.97579 19.5314 9.69064 19.5314 9.37501V7.81251H25.7814V32.8125C25.7814 34.1047 26.833 35.1563 28.1252 35.1563H46.8752C48.1674 35.1563 49.2189 34.1047 49.2189 32.8125V3.12501C49.2189 1.83283 48.1674 0.781265 46.8752 0.781265ZM18.7502 6.25001C18.3189 6.25001 17.9689 6.60001 17.9689 7.03126V7.48908L15.9486 5.46876L17.9689 3.44845V3.90626C17.9689 4.33751 18.3189 4.68751 18.7502 4.68751H45.3127V28.9063H29.6877V7.03126C29.6877 6.60001 29.3377 6.25001 28.9064 6.25001H18.7502ZM47.6564 32.8125C47.6564 33.243 47.3057 33.5938 46.8752 33.5938H28.1252C27.6947 33.5938 27.3439 33.243 27.3439 32.8125V7.81251H28.1252V29.6875C28.1252 30.1188 28.4752 30.4688 28.9064 30.4688H46.0939C46.5252 30.4688 46.8752 30.1188 46.8752 29.6875V3.90626C46.8752 3.47501 46.5252 3.12501 46.0939 3.12501H27.3439C27.3439 2.69455 27.6947 2.34376 28.1252 2.34376H46.8752C47.3057 2.34376 47.6564 2.69455 47.6564 3.12501V32.8125Z" fill="#CFB16D"/>
<path d="M35.1562 31.25H39.8438V32.8125H35.1562V31.25Z" fill="#CFB16D"/>
<path d="M35.1562 24.2188H36.7188V22.6562H37.5V24.2188H39.0625V22.5453C40.4062 22.1961 41.4062 20.9828 41.4062 19.5312C41.4062 18.5938 40.9828 17.7609 40.3266 17.1875C40.9828 16.6141 41.4062 15.7812 41.4062 14.8438C41.4062 13.3922 40.4062 12.1789 39.0625 11.8297V10.1562H37.5V11.7188H36.7188V10.1562H35.1562V11.7188H33.5938V13.2812H34.375V21.0938H33.5938V22.6562H35.1562V24.2188ZM38.2812 13.2812C39.143 13.2812 39.8438 13.982 39.8438 14.8438C39.8438 15.7055 39.143 16.4062 38.2812 16.4062H35.9375V13.2812H38.2812ZM35.9375 17.9688H38.2812C39.143 17.9688 39.8438 18.6695 39.8438 19.5312C39.8438 20.393 39.143 21.0938 38.2812 21.0938H35.9375V17.9688Z" fill="#CFB16D"/>
<path d="M31.8023 37.7289C31.5781 37.5055 31.243 37.4383 30.9508 37.5594C30.6594 37.6805 30.4688 37.9656 30.4688 38.2812V39.8438H24.2188V17.1875C24.2188 15.8953 23.1672 14.8438 21.875 14.8438H3.125C1.83281 14.8438 0.78125 15.8953 0.78125 17.1875V46.875C0.78125 48.1672 1.83281 49.2188 3.125 49.2188H21.875C23.1672 49.2188 24.2188 48.1672 24.2188 46.875V44.5312H30.4688V46.0938C30.4688 46.4094 30.6594 46.6945 30.9508 46.8156C31.0477 46.8555 31.1492 46.875 31.25 46.875C31.4531 46.875 31.6531 46.7953 31.8023 46.6461L35.7086 42.7398C36.0141 42.4344 36.0141 41.9406 35.7086 41.6352L31.8023 37.7289ZM22.6563 46.875C22.6563 47.3055 22.3055 47.6562 21.875 47.6562H3.125C2.69453 47.6562 2.34375 47.3055 2.34375 46.875V17.1875C2.34375 16.757 2.69453 16.4062 3.125 16.4062H21.875C22.3055 16.4062 22.6563 16.757 22.6563 17.1875V39.8438H21.875V17.9688C21.875 17.5375 21.525 17.1875 21.0938 17.1875H3.90625C3.475 17.1875 3.125 17.5375 3.125 17.9688V43.75C3.125 44.1812 3.475 44.5312 3.90625 44.5312H22.6563V46.875ZM32.0313 44.2078V43.75C32.0313 43.3188 31.6813 42.9688 31.25 42.9688H4.6875V18.75H20.3125V40.625C20.3125 41.0562 20.6625 41.4062 21.0938 41.4062H31.25C31.6813 41.4062 32.0313 41.0562 32.0313 40.625V40.1672L34.0516 42.1875L32.0313 44.2078Z" fill="#CFB16D"/>
</svg>
